#!OML:ASF E:\Steps\Project 1\Capture day 1\Session 2\Subject.ASF
:FULLY-SPECIFIED
:DEGREES
420
root 11.8064 17.9244 16.6083 -154.06 -0.471083 177.345
lowerback -31.9156 -2.92784 -8.277
upperback -0.30376 -1.37144 -0.237528
thorax 16.4892 -1.49182 3.55264
lowerneck -3.64711 -2.74833 -0.406825
upperneck 12.8734 -3.7175 4.15089
head 4.53872 -1.41364 1.17142
rclavicle 5.31749e-015 3.97569e-015
rhumerus -40.196 -17.4193 -75.3722
rradius 35.458
rwrist -2.42619
rhand -4.13735 -51.5926
rfingers 7.12502
rthumb 21.6221 279.595
lclavicle 5.31749e-015 3.97569e-015
lhumerus -30.5005 2.83228 80.5957
lradius 28.3377
lwrist -1.15234
lhand -22.3358 -12.4411
lfingers 7.12502
lthumb 4.08452 17.4995
rfemur -22.7334 6.6365 17.7537
rtibia 8.0661
rfoot -18.3951 -3.49462
rtoes -18.377
lfemur -21.7234 -5.73952 -25.2898
ltibia 6.30274
lfoot -5.79836 -6.84025
ltoes -19.8522
421
root 11.8083 17.9241 16.6038 -154.094 -0.341232 177.304
lowerback -31.9861 -2.90245 -8.31213
upperback -0.282976 -1.31419 -0.261549
thorax 16.5378 -1.47142 3.56747
lowerneck -3.63281 -2.68464 -0.498986
upperneck 12.7327 -3.64202 4.28187
head 4.4954 -1.37946 1.23084
rclavicle -1.09332e-014 1.23246e-014
rhumerus -40.2121 -17.6324 -75.2854
rradius 35.334
rwrist -2.30957
rhand -4.20403 -52.0873
rfingers 7.12502
rthumb 21.558 279.093
lclavicle -1.09332e-014 1.23246e-014
lhumerus -30.4592 2.92348 80.5824
lradius 28.2358
lwrist -1.20951
lhand -22.3255 -12.6354
lfingers 7.12502
lthumb 4.09441 17.305
rfemur -22.7008 6.49674 17.7145
rtibia 8.06524
rfoot -18.4172 -3.20678
rtoes -18.0909
lfemur -21.6345 -5.77938 -25.3542
ltibia 6.24726
lfoot -5.86471 -6.69862
ltoes -20.5329
422
root 11.8106 17.9253 16.6012 -154.103 -0.24226 177.271
lowerback -32.0677 -2.91287 -8.34443
upperback -0.250897 -1.30705 -0.243036
thorax 16.6131 -1.47404 3.60624
lowerneck -3.65771 -2.63351 -0.595249
upperneck 12.6287 -3.57624 4.32502
head 4.46851 -1.35492 1.26279
rclavicle -3.23025e-015 3.49861e-014
rhumerus -40.1908 -17.6189 -75.2279
rradius 35.2703
rwrist -2.29672
rhand -4.5265 -53.1498
rfingers 7.12502
rthumb 21.2483 277.995
lclavicle -3.23025e-015 3.49861e-014
lhumerus -30.3685 3.21448 80.5708
lradius 28.1024
lwrist -1.37652
lhand -22.1201 -12.7195
lfingers 7.12502
lthumb 4.29282 17.217
rfemur -22.6773 6.26554 17.6971
rtibia 8.01983
rfoot -18.3801 -2.85274
rtoes -17.5566
lfemur -21.5894 -5.87885 -25.3796
ltibia 6.20332
lfoot -5.87427 -6.54198
ltoes -20.571
423
root 11.8127 17.926 16.5998 -154.092 -0.27648 177.208
lowerback -32.1076 -2.96372 -8.38594
upperback -0.213216 -1.34993 -0.228874
thorax 16.6828 -1.49764 3.62448
lowerneck -3.74901 -2.60824 -0.676864
upperneck 12.5436 -3.55111 4.38661
head 4.45968 -1.34773 1.29508
rclavicle 1.12313e-014 -5.56597e-015
rhumerus -40.0465 -17.6141 -75.1819
rradius 35.1112
rwrist -2.37972
rhand -4.98094 -53.6378
rfingers 7.12502
rthumb 20.8117 277.458
lclavicle 1.12313e-014 -5.56597e-015
lhumerus -30.2267 3.43755 80.5648
lradius 28.0375
lwrist -1.34977
lhand -21.8123 -12.6952
lfingers 7.12502
lthumb 4.59 17.2351
rfemur -22.6319 6.12187 17.6582
rtibia 7.92291
rfoot -18.4148 -2.91265
rtoes -18.5258
lfemur -21.6119 -5.95146 -25.4203
ltibia 6.24108
lfoot -5.92353 -6.52749
ltoes -20.6
424
root 11.8166 17.9263 16.6001 -154.066 -0.335275 177.138
lowerback -32.1397 -3.04621 -8.44769
upperback -0.190805 -1.4316 -0.208529
thorax 16.7357 -1.5397 3.64331
lowerneck -3.81718 -2.55367 -0.76898
upperneck 12.4936 -3.48011 4.41832
head 4.456 -1.31873 1.3226
rclavicle -1.63997e-015 7.95139e-016
rhumerus -39.9014 -17.5531 -75.1761
rradius 34.9563
rwrist -2.39659
rhand -5.38295 -53.6194
rfingers 7.12502
rthumb 20.4254 277.435
lclavicle -1.63997e-015 7.95139e-016
lhumerus -30.1348 3.55707 80.5595
lradius 27.9904
lwrist -1.23261
lhand -21.668 -12.8144
lfingers 7.12502
lthumb 4.72938 17.1128
rfemur -22.605 6.19164 17.5888
rtibia 7.83288
rfoot -18.5304 -3.32493
rtoes -20.2686
lfemur -21.6715 -5.88578 -25.4923
ltibia 6.30436
lfoot -5.93594 -6.692
ltoes -20.7071
425
root 11.8209 17.9264 16.6005 -154 -0.289777 177.081
lowerback -32.2474 -3.11988 -8.51317
upperback -0.184425 -1.50142 -0.172377
thorax 16.8018 -1.57965 3.6842
lowerneck -3.8334 -2.5388 -0.826706
upperneck 12.4648 -3.45487 4.37467
head 4.44944 -1.31426 1.31962
rclavicle 1.35671e-014 4.29375e-014
rhumerus -39.8431 -17.2405 -75.2249
rradius 34.9652
rwrist -2.4867
rhand -4.38465 -52.9407
rfingers 7.12502
rthumb 21.3845 278.219
lclavicle 1.35671e-014 4.29375e-014
lhumerus -30.1246 3.73624 80.5467
lradius 27.9093
lwrist -1.34273
lhand -21.7155 -12.8617
lfingers 7.12502
lthumb 4.68346 17.0665
rfemur -22.6789 6.24119 17.5088
rtibia 7.81133
rfoot -18.5103 -3.45267
rtoes -20.5273
lfemur -21.7528 -5.8486 -25.5589
ltibia 6.3176
lfoot -5.93713 -6.76058
ltoes -20.6177
426
root 11.8236 17.9263 16.6004 -153.914 -0.163128 177.018
lowerback -32.3832 -3.12231 -8.58437
upperback -0.188617 -1.47011 -0.181979
thorax 16.8524 -1.57587 3.72056
lowerneck -3.8447 -2.5995 -0.830007
upperneck 12.4191 -3.54336 4.41551
head 4.44061 -1.35757 1.32796
rclavicle 1.83876e-015 2.62396e-014
rhumerus -39.8979 -17.0147 -75.265
rradius 35.0677
rwrist -2.65796
rhand -4.67682 -54.1043
rfingers 7.12502
rthumb 21.1039 277.024
lclavicle 1.83876e-015 2.62396e-014
lhumerus -30.1432 3.7823 80.5547
lradius 27.8577
lwrist -1.39984
lhand -21.9932 -12.488
lfingers 7.12502
lthumb 4.41537 17.446
rfemur -22.8401 6.20835 17.4062
rtibia 7.89904
rfoot -18.3778 -3.2184
rtoes -19.5985
lfemur -21.8249 -5.95869 -25.619
ltibia 6.27925
lfoot -6.03198 -6.57044
ltoes -21.0476
427
root 11.8263 17.9249 16.6017 -153.802 -0.101517 176.936
lowerback -32.5796 -3.13243 -8.65395
upperback -0.167238 -1.43616 -0.218051
thorax 16.9593 -1.57184 3.7258
lowerneck -3.88285 -2.63087 -0.827853
upperneck 12.3228 -3.59758 4.48233
head 4.42034 -1.3844 1.34481
rclavicle -1.30204e-014 -1.74931e-014
rhumerus -39.898 -17.1509 -75.2404
rradius 35.0415
rwrist -2.50616
rhand -4.90621 -55.0845
rfingers 7.12502
rthumb 20.8835 276.02
lclavicle -1.30204e-014 -1.74931e-014
lhumerus -30.0912 3.68109 80.5904
lradius 27.7707
lwrist -1.31723
lhand -22.3376 -12.1228
lfingers 7.12502
lthumb 4.08274 17.8178
rfemur -23.0196 6.13824 17.3014
rtibia 7.99602
rfoot -18.3271 -2.92723
rtoes -18.6678
lfemur -21.9526 -6.0683 -25.6943
ltibia 6.29099
lfoot -6.11267 -6.40432
ltoes -21.8723
428
root 11.8297 17.924 16.603 -153.825 -0.101926 176.869
lowerback -32.556 -3.14315 -8.70514
upperback -0.174945 -1.42959 -0.25859
thorax 16.9369 -1.57158 3.71107
lowerneck -3.93518 -2.6445 -0.768396
upperneck 12.3956 -3.61953 4.47422
head 4.45086 -1.38932 1.33084
rclavicle 2.98177e-016 -2.06736e-014
rhumerus -39.9424 -17.4144 -75.159
rradius 34.9007
rwrist -2.27789
rhand -4.88882 -55.159
rfingers 7.12502
rthumb 20.9002 275.947
lclavicle 2.98177e-016 -2.06736e-014
lhumerus -30.1548 3.59577 80.5654
lradius 27.7405
lwrist -1.2811
lhand -22.5497 -12.1136
lfingers 7.12502
lthumb 3.87797 17.8308
rfemur -22.9884 6.06545 17.2531
rtibia 7.9845
rfoot -18.3319 -2.78564
rtoes -18.2245
lfemur -21.9374 -6.03815 -25.7852
ltibia 6.31146
lfoot -6.09646 -6.42966
ltoes -22.2679
429
root 11.8336 17.9254 16.602 -154.002 -0.119346 176.825
lowerback -32.1187 -3.1367 -8.77367
upperback -0.328057 -1.4572 -0.269321
thorax 16.56 -1.57592 3.73641
lowerneck -3.85369 -2.58143 -0.848719
upperneck 12.4706 -3.53256 4.59804
head 4.46103 -1.33803 1.38778
rclavicle -3.32964e-015 4.96962e-014
rhumerus -40.2984 -17.346 -75.0621
rradius 34.8828
rwrist -2.39055
rhand -5.14804 -54.7718
rfingers 7.12502
rthumb 20.6512 276.307
lclavicle -3.32964e-015 4.96962e-014
lhumerus -30.539 3.68082 80.4782
lradius 27.788
lwrist -1.3846
lhand -22.6962 -12.2327
lfingers 7.12502
lthumb 3.73648 17.7143
rfemur -22.747 6.05491 17.255
rtibia 7.90908
rfoot -18.3199 -2.85364
rtoes -18.5359
lfemur -21.7236 -5.97523 -25.8493
ltibia 6.28105
lfoot -6.04753 -6.51652
ltoes -22.1308
430
root 11.8363 17.9273 16.6005 -154.14 -0.175744 176.808
lowerback -32.1045 -3.13184 -8.70603
upperback -0.226118 -1.44608 -0.335005
thorax 16.6736 -1.56377 3.63319
lowerneck -3.82292 -2.49114 -0.924902
upperneck 12.1974 -3.43073 4.80433
head 4.37421 -1.29086 1.46903
rclavicle 3.52843e-015 -2.06736e-014
rhumerus -40.2179 -17.3681 -75.1803
rradius 34.8104
rwrist -2.48972
rhand -5.31153 -54.4394
rfingers 7.12502
rthumb 20.4941 276.622
lclavicle 3.52843e-015 -2.06736e-014
lhumerus -30.4733 3.77736 80.3393
lradius 27.6803
lwrist -1.48652
lhand -22.7692 -12.5509
lfingers 7.12502
lthumb 3.66602 17.3973
rfemur -22.5429 6.02243 17.2852
rtibia 7.84975
rfoot -18.329 -2.91637
rtoes -19.0345
lfemur -21.542 -6.06337 -25.8408
ltibia 6.22838
lfoot -6.01661 -6.50016
ltoes -21.6031
431
root 11.8398 17.9276 16.6017 -154.181 -0.229354 176.808
lowerback -31.4221 -3.05113 -8.65316
upperback -0.655388 -1.49249 -0.38135
thorax 15.854 -1.55849 3.55319
lowerneck -3.797 -2.56776 -0.863576
upperneck 12.7836 -3.51157 4.7423
head 4.54924 -1.30227 1.43708
rclavicle -1.93815e-015 -9.14409e-015
rhumerus -40.8647 -17.2883 -75.0106
rradius 34.7087
rwrist -2.48388
rhand -5.25967 -54.2277
rfingers 7.12502
rthumb 20.5439 276.839
lclavicle -1.93815e-015 -9.14409e-015
lhumerus -31.1728 3.60141 80.2082
lradius 27.6596
lwrist -1.42474
lhand -22.5912 -12.824
lfingers 7.12502
lthumb 3.83786 17.1212
rfemur -22.4751 5.93539 17.3245
rtibia 7.82653
rfoot -18.3063 -2.81624
rtoes -18.6381
lfemur -21.4886 -6.15283 -25.8086
ltibia 6.21066
lfoot -6.01579 -6.47197
ltoes -20.93
432
root 11.8437 17.9275 16.6026 -154.14 -0.195472 176.738
lowerback -31.6369 -3.05476 -8.71057
upperback -0.561901 -1.43728 -0.425585
thorax 16.0532 -1.54413 3.55144
lowerneck -3.83577 -2.61534 -0.80027
upperneck 12.7629 -3.58141 4.72308
head 4.55015 -1.33569 1.4166
rclavicle -4.02539e-015 1.74931e-014
rhumerus -40.704 -17.59 -74.9537
rradius 34.4743
rwrist -2.28957
rhand -5.08849 -53.767
rfingers 7.12502
rthumb 20.7084 277.318
lclavicle -4.02539e-015 1.74931e-014
lhumerus -31.0074 3.5251 80.1868
lradius 27.5481
lwrist -1.43058
lhand -22.3736 -12.6323
lfingers 7.12502
lthumb 4.04799 17.309
rfemur -22.5324 5.92006 17.2406
rtibia 7.82291
rfoot -18.4033 -2.88764
rtoes -19.0725
lfemur -21.558 -6.29756 -25.8558
ltibia 6.27659
lfoot -6.08116 -6.34906
ltoes -21.0919
433
root 11.8447 17.9284 16.5982 -154.14 -0.0520711 176.654
lowerback -31.6525 -3.01905 -8.7804
upperback -0.603017 -1.36857 -0.477589
thorax 15.9996 -1.5192 3.55931
lowerneck -3.87405 -2.61468 -0.734091
upperneck 12.8984 -3.57987 4.70162
head 4.59655 -1.32598 1.399
rclavicle 4.96962e-015 -2.8625e-014
rhumerus -40.8565 -17.722 -74.8369
rradius 34.3954
rwrist -2.19194
rhand -4.8966 -53.3382
rfingers 7.12502
rthumb 20.8928 277.767
lclavicle 4.96962e-015 -2.8625e-014
lhumerus -31.1148 3.5819 80.1174
lradius 27.4497
lwrist -1.53491
lhand -22.227 -12.4817
lfingers 7.12502
lthumb 4.18953 17.4569
rfemur -22.5414 5.86848 17.1185
rtibia 7.81159
rfoot -18.6896 -2.99662
rtoes -21.1543
lfemur -21.543 -6.49673 -25.9315
ltibia 6.29839
lfoot -6.16132 -6.0598
ltoes -21.54
434
root 11.847 17.9296 16.5942 -154.218 0.0831621 176.625
lowerback -32.0619 -3.04199 -8.88418
upperback -0.298754 -1.26981 -0.44623
thorax 16.5389 -1.49814 3.68143
lowerneck -4.01711 -2.58203 -0.651774
upperneck 12.6719 -3.54895 4.61418
head 4.54769 -1.32468 1.35798
rclavicle -1.15295e-014 -4.77083e-015
rhumerus -40.4162 -17.9313 -74.8105
rradius 34.2293
rwrist -2.15406
rhand -4.83546 -53.0131
rfingers 7.12502
rthumb 20.9515 278.098
lclavicle -1.15295e-014 -4.77083e-015
lhumerus -30.7265 3.75285 80.1709
lradius 27.3134
lwrist -1.5014
lhand -22.1245 -12.5549
lfingers 7.12502
lthumb 4.28859 17.3816
rfemur -22.4635 5.84688 17.0761
rtibia 7.82114
rfoot -18.8386 -2.91654
rtoes -21.5472
lfemur -21.4095 -6.542 -25.9736
ltibia 6.23504
lfoot -6.22399 -5.85778
ltoes -22.0456
